<?xml version="1.0" encoding="UTF-8"?>
<svg width="0" height="0" class="hidden">
  <symbol xmlns="http://www.w3.org/2000/svg" viewBox="0 0 20 19" id="icon-sun">
    <path d="M10 15.635c.33 0 .612.295.612.639v1.89c0 .344-.282.638-.612.638s-.612-.294-.612-.638v-1.89c0-.344.282-.639.612-.639zm-4.488-1.783c.27.262.27.68 0 .941L4.03 16.231a.698.698 0 01-.97 0 .649.649 0 010-.941l1.482-1.438c.27-.261.7-.261.97 0zm9.946 0l1.483 1.438c.27.261.27.68 0 .941a.698.698 0 01-.97 0l-1.483-1.438a.649.649 0 010-.94c.242-.262.674-.262.97 0zM10 4.552c1.396 0 2.685.525 3.598 1.4.913.85 1.504 2.05 1.504 3.35 0 1.3-.59 2.5-1.504 3.35a5.314 5.314 0 01-3.598 1.4c-1.396 0-2.685-.525-3.598-1.4-.913-.85-1.504-2.05-1.504-3.35 0-1.3.564-2.5 1.504-3.35A5.314 5.314 0 0110 4.552zM2.607 8.906c.355 0 .658.274.658.594 0 .32-.303.594-.658.594H.658C.304 10.094 0 9.82 0 9.5c0-.32.304-.594.658-.594h1.95zm16.735 0c.354 0 .658.274.658.594 0 .32-.304.594-.658.594h-1.95c-.354 0-.657-.274-.657-.594 0-.32.303-.594.658-.594h1.949zM4.03 2.77l1.482 1.438c.27.261.27.68 0 .94-.242.262-.674.262-.97 0L3.059 3.71a.649.649 0 010-.941c.27-.261.701-.261.97 0zm12.91 0c.27.261.27.68 0 .941l-1.482 1.438a.698.698 0 01-.97 0 .649.649 0 010-.941l1.482-1.438c.27-.261.701-.261.97 0zM10 .198c.33 0 .612.294.612.638v1.89c0 .344-.282.639-.612.639s-.612-.295-.612-.639V.836c0-.344.282-.638.612-.638z" fill="#FFF" fill-rule="nonzero" />
  </symbol>
  <symbol xmlns="http://www.w3.org/2000/svg" viewBox="0 0 17 24" id="icon-location">
    <path d="M14.358 2.451A8.3 8.3 0 008.448 0a8.3 8.3 0 00-5.911 2.451c-2.922 2.925-3.285 8.427-.786 11.76l6.697 9.683 6.687-9.669c2.508-3.347 2.145-8.85-.777-11.774zm-5.833 8.894a3.057 3.057 0 01-3.051-3.054 3.057 3.057 0 013.05-3.055 3.057 3.057 0 013.052 3.055 3.057 3.057 0 01-3.051 3.054z" fill="#5964E0" fill-rule="nonzero" />
  </symbol>
  <symbol xmlns="http://www.w3.org/2000/svg" fill="none" viewBox="0 0 1440 160" id="bg-navbar">
    <path d="M1440 0H0v60c0 55.228 44.772 100 100 100h1340V0z" fill="#5964E0" />
    <mask id="a" maskUnits="userSpaceOnUse" x="0" y="0" width="1440" height="160">
      <path d="M1440 0H0v60c0 55.228 44.772 100 100 100h1340V0z" fill="#fff" />
    </mask>
    <g mask="url(#a)" fill-rule="evenodd" clip-rule="evenodd" fill="#fff">
      <path opacity=".081" d="M1163.89-205.424c21.12-23.963 60.32-15.63 69.88 14.853l114.11 364.163c9.39 29.936-16.96 58.887-47.64 52.364l-366.492-77.899c-30.685-6.522-42.976-43.685-22.23-67.217l252.372-286.264zM254.539-323.259c-3.117-31.792 29.711-54.779 58.52-40.976L657.22-199.336c28.291 13.555 31.498 52.566 5.8 70.56L356.104 86.129c-25.698 17.994-61.259 1.637-64.321-29.584L254.539-323.26zM-71.46 71.741c-3.119-31.792 29.71-54.78 58.52-40.976l344.16 164.899c28.291 13.555 31.498 52.566 5.8 70.56L30.104 481.129c-25.698 17.994-61.26 1.637-64.32-29.584L-71.462 71.741z" />
    </g>
  </symbol>
  <symbol xmlns="http://www.w3.org/2000/svg" viewBox="0 0 24 24" id="icon-search">
    <path d="M17.112 15.059h-1.088l-.377-.377a8.814 8.814 0 002.15-5.784A8.898 8.898 0 008.898 0 8.898 8.898 0 000 8.898a8.898 8.898 0 008.898 8.899c2.211 0 4.23-.808 5.784-2.143l.377.377v1.081l6.845 6.832 2.04-2.04-6.832-6.845zm-8.214 0A6.16 6.16 0 118.9 2.737a6.16 6.16 0 010 12.322z" fill="#5964E0" fill-rule="nonzero" />
  </symbol>
  <symbol xmlns="http://www.w3.org/2000/svg" viewBox="0 0 12 12" id="icon-moon">
    <path d="M6 0c1.516 0 2.925.566 3.978 1.523A3.979 3.979 0 008 1a4.014 4.014 0 00-2.821 1.179A3.927 3.927 0 004 5c0 1.095.463 2.105 1.179 2.821A3.927 3.927 0 008 9a4.034 4.034 0 003.974-3.548c.017.18.026.364.026.548a6.02 6.02 0 01-1.768 4.232A6.02 6.02 0 016 12a5.89 5.89 0 01-4.232-1.768A6.02 6.02 0 010 6a5.89 5.89 0 011.768-4.232A6.02 6.02 0 016 0z" fill="#FFF" fill-rule="nonzero" />
  </symbol>
  <symbol xmlns="http://www.w3.org/2000/svg" fill="none" viewBox="0 0 730 261" id="bg-footer">
    <rect y="1" width="730" height="259" rx="6" fill="#5964E0" />
    <mask id="a" maskUnits="userSpaceOnUse" x="0" y="1" width="730" height="259">
      <rect y="1" width="730" height="259" rx="6" fill="#fff" />
    </mask>
    <g mask="url(#a)">
      <path opacity=".081" fill-rule="evenodd" clip-rule="evenodd" d="M549.888-78.424c21.125-23.963 60.326-15.63 69.879 14.853l114.117 364.163c9.381 29.936-16.962 58.887-47.648 52.364l-366.488-77.899c-30.685-6.522-42.976-43.685-22.23-67.218l252.37-286.263z" fill="#fff" />
    </g>
  </symbol>
  <symbol xmlns="http://www.w3.org/2000/svg" viewBox="0 0 15 12" id="icon-check">
    <path d="M1 6.57l3.572 3.572L13.714 1" stroke="#FFF" stroke-width="2" fill="none" fill-rule="evenodd" />
  </symbol>
  <symbol xmlns="http://www.w3.org/2000/svg" fill="none" viewBox="0 0 24 24" id="icon-info">
    <path d="M12 17V11" stroke="#f4f6f8" stroke-width="1.5" stroke-linecap="round" />
    <circle cx="1" cy="1" r="1" transform="matrix(1 0 0 -1 11 9)" fill="#f4f6f8" />
    <path d="M7 3.33782C8.47087 2.48697 10.1786 2 12 2C17.5228 2 22 6.47715 22 12C22 17.5228 17.5228 22 12 22C6.47715 22 2 17.5228 2 12C2 10.1786 2.48697 8.47087 3.33782 7" stroke="#f4f6f8" stroke-width="1.5" stroke-linecap="round" />
  </symbol>
  <symbol xmlns="http://www.w3.org/2000/svg" fill="none" viewBox="0 0 24 24" id="icon-close">
    <path d="M14.5 9.50002L9.5 14.5M9.49998 9.5L14.5 14.5" stroke="#eee" stroke-width="1.5" stroke-linecap="round" />
    <path d="M7 3.33782C8.47087 2.48697 10.1786 2 12 2C17.5228 2 22 6.47715 22 12C22 17.5228 17.5228 22 12 22C6.47715 22 2 17.5228 2 12C2 10.1786 2.48697 8.47087 3.33782 7" stroke="#eee" stroke-width="1.5" stroke-linecap="round" />
  </symbol>
  <symbol xmlns="http://www.w3.org/2000/svg" fill="none" viewBox="0 0 24 24" id="icon-close-dark">
    <path d="M14.5 9.50002L9.5 14.5M9.49998 9.5L14.5 14.5" stroke="#121721" stroke-width="1.5" stroke-linecap="round" />
    <path d="M7 3.33782C8.47087 2.48697 10.1786 2 12 2C17.5228 2 22 6.47715 22 12C22 17.5228 17.5228 22 12 22C6.47715 22 2 17.5228 2 12C2 10.1786 2.48697 8.47087 3.33782 7" stroke="#121721" stroke-width="1.5" stroke-linecap="round" />
  </symbol>
  <symbol xmlns="http://www.w3.org/2000/svg" version="1" enable-background="new 0 0 48 48" viewBox="0 0 48 48" id="icon-valid">
    <circle fill="#4CAF50" cx="24" cy="24" r="21" />
    <polygon fill="#CCFF90" points="34.6,14.6 21,28.2 15.4,22.6 12.6,25.4 21,33.8 37.4,17.4" />
  </symbol>
  <symbol xmlns="http://www.w3.org/2000/svg" fill="" viewBox="0 0 16 16" id="icon-error">
    <path d="M7.493 0.015 C 7.442 0.021,7.268 0.039,7.107 0.055 C 5.234 0.242,3.347 1.208,2.071 2.634 C 0.660 4.211,-0.057 6.168,0.009 8.253 C 0.124 11.854,2.599 14.903,6.110 15.771 C 8.169 16.280,10.433 15.917,12.227 14.791 C 14.017 13.666,15.270 11.933,15.771 9.887 C 15.943 9.186,15.983 8.829,15.983 8.000 C 15.983 7.171,15.943 6.814,15.771 6.113 C 14.979 2.878,12.315 0.498,9.000 0.064 C 8.716 0.027,7.683 -0.006,7.493 0.015 M8.853 1.563 C 9.967 1.707,11.010 2.136,11.944 2.834 C 12.273 3.080,12.920 3.727,13.166 4.056 C 13.727 4.807,14.142 5.690,14.330 6.535 C 14.544 7.500,14.544 8.500,14.330 9.465 C 13.916 11.326,12.605 12.978,10.867 13.828 C 10.239 14.135,9.591 14.336,8.880 14.444 C 8.456 14.509,7.544 14.509,7.120 14.444 C 5.172 14.148,3.528 13.085,2.493 11.451 C 2.279 11.114,1.999 10.526,1.859 10.119 C 1.618 9.422,1.514 8.781,1.514 8.000 C 1.514 6.961,1.715 6.075,2.160 5.160 C 2.500 4.462,2.846 3.980,3.413 3.413 C 3.980 2.846,4.462 2.500,5.160 2.160 C 6.313 1.599,7.567 1.397,8.853 1.563 M7.706 4.290 C 7.482 4.363,7.355 4.491,7.293 4.705 C 7.257 4.827,7.253 5.106,7.259 6.816 C 7.267 8.786,7.267 8.787,7.325 8.896 C 7.398 9.033,7.538 9.157,7.671 9.204 C 7.803 9.250,8.197 9.250,8.329 9.204 C 8.462 9.157,8.602 9.033,8.675 8.896 C 8.733 8.787,8.733 8.786,8.741 6.816 C 8.749 4.664,8.749 4.662,8.596 4.481 C 8.472 4.333,8.339 4.284,8.040 4.276 C 7.893 4.272,7.743 4.278,7.706 4.290 M7.786 10.530 C 7.597 10.592,7.410 10.753,7.319 10.932 C 7.249 11.072,7.237 11.325,7.294 11.495 C 7.388 11.780,7.697 12.000,8.000 12.000 C 8.303 12.000,8.612 11.780,8.706 11.495 C 8.763 11.325,8.751 11.072,8.681 10.932 C 8.616 10.804,8.460 10.646,8.333 10.580 C 8.217 10.520,7.904 10.491,7.786 10.530 " stroke="none" fill-rule="evenodd" fill="" />
  </symbol>
  <symbol xmlns="http://www.w3.org/2000/svg" width="50" height="50" viewBox="0 0 50 50" fill="none" id="typemaster">
    <g id="Group 3 Copy 3">
      <rect id="Rectangle" width="50" height="50" rx="15" fill="#F16718" />
      <g id="Group 17">
        <g id="Group 13">
          <rect id="Rectangle_2" x="13" y="13" width="24" height="24" fill="white" />
          <g id="TM 2">
            <path id="TM" fill-rule="evenodd" clip-rule="evenodd" d="M19.3781 23.021C19.3781 23.1341 19.3144 23.2001 19.2051 23.2001H17.8393C17.73 23.2001 17.6663 23.1341 17.6663 23.021V18.203C17.6663 18.1558 17.639 18.1275 17.5935 18.1275H16.173C16.0637 18.1275 16 18.0615 16 17.9484V16.7792C16 16.6661 16.0637 16.6001 16.173 16.6001H20.9169C21.0262 16.6001 21.0899 16.6661 21.0899 16.7792V17.9484C21.0899 18.0615 21.0262 18.1275 20.9169 18.1275H19.451C19.4054 18.1275 19.3781 18.1558 19.3781 18.203V23.021ZM23.3208 23.021C23.3208 23.1341 23.257 23.2001 23.1478 23.2001H21.7819C21.6727 23.2001 21.6089 23.1341 21.6089 23.021V16.7792C21.6089 16.6661 21.6727 16.6001 21.7819 16.6001H23.1387C23.2297 16.6001 23.3026 16.6378 23.3481 16.7227L24.4498 18.5801C24.4772 18.6367 24.5318 18.6367 24.5591 18.5801L25.6609 16.7227C25.7064 16.6378 25.7792 16.6001 25.8703 16.6001H27.227C27.3363 16.6001 27.4 16.6661 27.4 16.7792V23.021C27.4 23.1341 27.3363 23.2001 27.227 23.2001H25.8612C25.7519 23.2001 25.6882 23.1341 25.6882 23.021V19.6927C25.6882 19.6172 25.6335 19.6078 25.5971 19.6644L25.0326 20.6355C24.9871 20.7204 24.9142 20.7581 24.8232 20.7581H24.1858C24.0947 20.7581 24.0219 20.7204 23.9764 20.6355L23.4118 19.6644C23.3754 19.6078 23.3208 19.6172 23.3208 19.6927V23.021Z" fill="#F16718" />
          </g>
        </g>
      </g>
    </g>
  </symbol>
  <symbol xmlns="http://www.w3.org/2000/svg" width="50" height="50" viewBox="0 0 50 50" fill="none" id="blogr">
    <g id="Group 3 Copy 3">
      <rect id="Rectangle" width="50" height="50" rx="15" fill="#E54D25" />
      <g id="b. 2">
        <path id="b." fill-rule="evenodd" clip-rule="evenodd" d="M23.2066 34C26.4218 34 29.1424 31.5585 29.1424 27.5798C29.1424 23.6011 26.4218 21.1822 23.2066 21.1822C21.8576 21.1822 20.8233 21.5213 20.0814 22.2447V17H15V33.7739H19.834V32.7566C20.576 33.5931 21.6777 34 23.2066 34ZM21.9925 30.0213C20.8683 30.0213 19.9914 29.1848 19.9914 27.5798C19.9914 25.9747 20.8683 25.1609 21.9925 25.1609C23.1167 25.1609 23.9936 25.9747 23.9936 27.5798C23.9936 29.1848 23.1167 30.0213 21.9925 30.0213ZM36 31.0612C36 32.7793 34.7184 34 33.0321 34C31.3458 34 30.0642 32.7793 30.0642 31.0612C30.0642 29.3205 31.3458 28.1676 33.0321 28.1676C34.7184 28.1676 36 29.3205 36 31.0612Z" fill="white" />
      </g>
    </g>
  </symbol>
  <symbol xmlns="http://www.w3.org/2000/svg" width="50" height="50" viewBox="0 0 50 50" fill="none" id="creative">
    <g id="Group 3 Copy 3">
      <rect id="Rectangle" width="50" height="50" rx="15" fill="#4E1853" />
      <path id="Combined Shape" fill-rule="evenodd" clip-rule="evenodd" d="M38.6069 21.8145H36.6434C36.5488 22.3303 36.3597 22.7443 36.076 23.0566C35.7923 23.3688 35.3803 23.5249 34.8399 23.5249C34.3536 23.5249 33.8267 23.3959 33.2594 23.138C32.692 22.8801 32.0773 22.5848 31.4154 22.2523C30.7535 21.9197 30.0206 21.6278 29.2168 21.3767C28.413 21.1256 27.5316 21 26.5724 21C24.8433 21 23.4823 21.733 22.4894 23.1991C21.4965 24.6652 21 26.6538 21 29.1652H25.3566C25.4512 28.6629 25.664 28.2557 25.9949 27.9434C26.3259 27.6312 26.7683 27.4751 27.3222 27.4751C27.7815 27.4751 28.2881 27.6007 28.8419 27.8518C29.3958 28.1029 30.0172 28.3982 30.7062 28.7376C31.3951 29.0769 32.155 29.3722 32.9858 29.6233C33.8166 29.8744 34.7183 30 35.691 30C36.6941 30 37.5687 29.7252 38.3148 29.1757C36.5755 34.307 31.719 38 26 38C18.8203 38 13 32.1797 13 25C13 17.8203 18.8203 12 26 12C32.0807 12 37.1863 16.1748 38.6069 21.8145Z" fill="#F94F4F" />
    </g>
  </symbol>
  <symbol xmlns="http://www.w3.org/2000/svg" width="50" height="50" viewBox="0 0 50 50" fill="none" id="office lite">
    <g id="Group 3">
      <rect id="Rectangle" width="50" height="50" rx="15" fill="#2F4FC7" />
      <g id="Group 5">
        <circle id="Oval Copy 18" cx="30" cy="25" r="10" fill="#5175FF" />
        <g id="Oval Copy 17">
          <circle id="Mask" cx="20" cy="25" r="10" fill="#5175FF" />
          <mask id="mask0_0_2608" style="mask-type:luminance" maskUnits="userSpaceOnUse" x="10" y="15" width="20" height="20">
            <circle id="Mask_2" cx="20" cy="25" r="10" fill="white" />
          </mask>
          <g mask="url(#mask0_0_2608)">
            <circle id="Oval Copy 17_2" opacity="0.323544" cx="30" cy="25" r="10" fill="#B4C4FF" />
          </g>
        </g>
      </g>
    </g>
  </symbol>
  <symbol xmlns="http://www.w3.org/2000/svg" xmlns:xlink="http://www.w3.org/1999/xlink" viewBox="0 0 375 136" id="bg-pattern-detail-footer">
    <defs>
      <path id="a" d="M0 0h375v136H0z" />
    </defs>
    <g fill="none" fill-rule="evenodd">
      <mask id="b" fill="#fff">
        <use xlink:href="#a" />
      </mask>
      <use fill="#5964E0" transform="matrix(-1 0 0 1 375 0)" xlink:href="#a" />
      <g mask="url(#b)" fill="#FFF" opacity=".081">
        <path d="M313.06-362.235l344.16 164.899c20.42 9.784 29.043 34.27 19.259 54.69a41 41 0 01-13.459 15.87L356.104 88.129c-18.548 12.988-44.114 8.48-57.102-10.069a41 41 0 01-7.219-19.515L254.54-321.26c-2.21-22.535 14.268-42.595 36.803-44.805a41 41 0 0121.717 3.83zM-12.94 32.765l344.16 164.899c20.42 9.784 29.043 34.27 19.259 54.69a41 41 0 01-13.459 15.87L30.104 483.129c-18.548 12.988-44.114 8.48-57.102-10.069a41 41 0 01-7.219-19.515L-71.46 73.74c-2.21-22.535 14.268-42.595 36.803-44.805a41 41 0 0121.717 3.83z" />
      </g>
    </g>
  </symbol>
  <symbol xmlns="http://www.w3.org/2000/svg" viewBox="0 0 20 20" id="bg-pattern-header">
    <path d="M19.108 0H.86a.86.86 0 00-.764.455.833.833 0 00.068.884l6.685 9.202.007.01c.242.32.374.708.375 1.107v7.502a.825.825 0 00.248.594.865.865 0 00.942.18l3.756-1.4c.337-.1.56-.41.56-.784v-6.092c0-.399.132-.787.375-1.108l.007-.009 6.685-9.202c.19-.26.217-.6.068-.884A.86.86 0 0019.108 0z" fill="#6E8098" fill-rule="nonzero" />
  </symbol>
  <symbol xmlns="http://www.w3.org/2000/svg" viewBox="0 0 26 26" id="icon-filter">
    <g fill="none">
      <path fill="#444" d="M2.558 12.102a1.93 1.93 0 012.605-.113l.123.113 10.142 10.141a1.93 1.93 0 01-2.606 2.841l-.123-.112L2.558 14.83a1.93 1.93 0 010-2.728z" />
      <path fill="#FFF" d="M23.182 1.017c1.007-.996 2.707-.34 2.806 1.026l.005.126v10.736c0 .9-.737 1.629-1.647 1.629a1.64 1.64 0 01-1.642-1.507l-.004-.122V6.1l-8.043 7.957c-1.007.995-2.707.34-2.806-1.026l-.005-.126V6.1l-8.043 7.957a1.66 1.66 0 01-2.223.095l-.105-.095a1.616 1.616 0 01-.096-2.2l.096-.104L12.328 1.017c1.007-.996 2.707-.34 2.806 1.026l.005.126v6.804l8.043-7.956z" />
    </g>
  </symbol>
  <symbol xmlns="http://www.w3.org/2000/svg" width="50" height="50" viewBox="0 0 50 50" fill="none" id="mastercraft">
    <g id="Group 3">
      <rect id="Rectangle" width="50" height="50" rx="15" fill="#1F1F1F" />
      <g id="Group 16">
        <path id="Path 5" d="M14.5577 24.1017C15.2715 23.3879 16.4054 23.3504 17.1634 23.989L17.2861 24.1017L27.4276 34.2431C28.181 34.9966 28.181 36.2181 27.4276 36.9715C26.7138 37.6853 25.5799 37.7229 24.8219 37.0842L24.6992 36.9715L14.5577 26.8301C13.8043 26.0767 13.8043 24.8551 14.5577 24.1017Z" fill="#444444" />
        <g id="Path 4">
          <path id="Path 3" d="M35.1821 13.0169C36.1888 12.0211 37.889 12.6763 37.9881 14.0423L37.9926 14.1685V24.9048C37.9926 25.8042 37.2555 26.5334 36.3463 26.5334C35.4784 26.5334 34.7673 25.869 34.7044 25.0263L34.6999 24.9048L34.6996 18.0997L26.6568 26.0564C25.6502 27.0521 23.95 26.3969 23.8508 25.0309L23.8463 24.9048L23.846 18.0997L15.8032 26.0564C15.1941 26.6589 14.2264 26.6906 13.5796 26.1515L13.4749 26.0564C12.8657 25.4538 12.8337 24.4967 13.3787 23.8568L13.4749 23.7532L24.3285 13.0169C25.3351 12.0211 27.0353 12.6763 27.1345 14.0423L27.139 14.1685L27.1387 20.9725L35.1821 13.0169Z" fill="white" />
        </g>
      </g>
    </g>
  </symbol>
  <symbol xmlns="http://www.w3.org/2000/svg" width="50" height="50" viewBox="0 0 50 50" fill="none" id="pod">
    <g id="Group 3 Copy 4">
      <rect id="Rectangle" width="50" height="50" rx="15" fill="#132034" />
      <g id="Combined Shape 2">
        <circle id="Combined Shape" cx="25" cy="25" r="12" fill="#54E6AF" />
      </g>
    </g>
  </symbol>
  <symbol xmlns="http://www.w3.org/2000/svg" width="50" height="50" viewBox="0 0 50 50" fill="none" id="pomodoro">
    <g id="Group 3 Copy 3">
      <rect id="Rectangle" width="50" height="50" rx="15" fill="#4722C6" />
      <g id="pomodoro 2">
        <path id="pomodoro" fill-rule="evenodd" clip-rule="evenodd" d="M29.2187 27.2028C29.0254 27.2809 28.8152 27.32 28.5883 27.32C28.2641 27.32 27.974 27.2412 27.7181 27.0837C27.4622 26.9262 27.2613 26.7104 27.1154 26.4363C26.9696 26.1621 26.8966 25.85 26.8966 25.5C26.8966 25.15 26.9696 24.8379 27.1154 24.5638C27.2613 24.2896 27.4622 24.0738 27.7181 23.9162C27.974 23.7587 28.2641 23.68 28.5883 23.68C28.806 23.68 29.0086 23.7167 29.1962 23.7902C29.3837 23.8637 29.5505 23.9658 29.6964 24.0965V22H30.6968V27.25H29.7519L29.7276 26.872C29.5817 27.0143 29.4121 27.1246 29.2187 27.2028ZM9.00041 26.9035V29H8V23.75H8.94483L8.96915 24.128C9.11504 23.9857 9.28525 23.8754 9.47977 23.7972C9.6743 23.7191 9.88387 23.68 10.1085 23.68C10.435 23.68 10.7257 23.7587 10.9804 23.9162C11.2351 24.0738 11.4354 24.2896 11.5813 24.5638C11.7272 24.8379 11.8002 25.15 11.8002 25.5C11.8002 25.85 11.7272 26.1621 11.5813 26.4362C11.4354 26.7104 11.2351 26.9262 10.9804 27.0837C10.7257 27.2413 10.435 27.32 10.1085 27.32C9.89082 27.32 9.68819 27.2832 9.50061 27.2098C9.31304 27.1363 9.1463 27.0342 9.00041 26.9035ZM9.25051 26.1755C9.41725 26.3552 9.62798 26.445 9.88271 26.445C10.1374 26.445 10.3482 26.3552 10.5149 26.1755C10.6817 25.9958 10.765 25.7707 10.765 25.5C10.765 25.2293 10.6817 25.0042 10.5149 24.8245C10.3482 24.6448 10.1374 24.555 9.88271 24.555C9.62798 24.555 9.41725 24.6448 9.25051 24.8245C9.08378 25.0042 9.00041 25.2293 9.00041 25.5C9.00041 25.7707 9.08378 25.9958 9.25051 26.1755ZM14.0719 27.32C14.4286 27.32 14.7458 27.2413 15.0237 27.0837C15.3016 26.9262 15.521 26.7104 15.682 26.4362C15.8429 26.1621 15.9234 25.85 15.9234 25.5C15.9234 25.15 15.8429 24.8379 15.682 24.5638C15.521 24.2896 15.3016 24.0738 15.0237 23.9162C14.7458 23.7587 14.4286 23.68 14.0719 23.68C13.7153 23.68 13.3975 23.7587 13.1184 23.9162C12.8394 24.0738 12.6194 24.2896 12.4584 24.5638C12.2975 24.8379 12.217 25.15 12.217 25.5C12.217 25.85 12.2975 26.1621 12.4584 26.4362C12.6194 26.7104 12.8394 26.9262 13.1184 27.0837C13.3975 27.2413 13.7153 27.32 14.0719 27.32ZM13.4397 26.1755C13.6065 26.3552 13.8172 26.445 14.0719 26.445C14.3267 26.445 14.5374 26.3552 14.7041 26.1755C14.8709 25.9958 14.9542 25.7707 14.9542 25.5C14.9542 25.2293 14.8709 25.0042 14.7041 24.8245C14.5374 24.6448 14.3267 24.555 14.0719 24.555C13.8172 24.555 13.6065 24.6448 13.4397 24.8245C13.273 25.0042 13.1896 25.2293 13.1896 25.5C13.1896 25.7707 13.273 25.9958 13.4397 26.1755ZM17.5838 27.25V25.3915C17.5838 25.1138 17.6475 24.905 17.7748 24.765C17.9022 24.625 18.0562 24.555 18.2368 24.555C18.4151 24.555 18.5674 24.6227 18.6936 24.758C18.8198 24.8933 18.8829 25.0963 18.8829 25.367V27.25H19.8833V25.3915C19.8833 25.1138 19.947 24.905 20.0744 24.765C20.2017 24.625 20.3557 24.555 20.5364 24.555C20.7147 24.555 20.8669 24.6227 20.9932 24.758C21.1194 24.8933 21.1825 25.0963 21.1825 25.367V27.25H22.1829V25.367C22.1829 24.8373 22.0659 24.4237 21.832 24.1263C21.5981 23.8287 21.2705 23.68 20.849 23.68C20.5827 23.68 20.3511 23.7395 20.1543 23.8585C19.9574 23.9775 19.8011 24.1478 19.6853 24.3695C19.463 23.9098 19.0844 23.68 18.5494 23.68C18.1303 23.68 17.798 23.827 17.5525 24.121L17.5282 23.75H16.5834V27.25H17.5838ZM25.5801 27.0837C25.3022 27.2413 24.9849 27.32 24.6283 27.32C24.2717 27.32 23.9539 27.2413 23.6748 27.0837C23.3958 26.9262 23.1758 26.7104 23.0148 26.4362C22.8539 26.1621 22.7734 25.85 22.7734 25.5C22.7734 25.15 22.8539 24.8379 23.0148 24.5638C23.1758 24.2896 23.3958 24.0738 23.6748 23.9162C23.9539 23.7587 24.2717 23.68 24.6283 23.68C24.9849 23.68 25.3022 23.7587 25.5801 23.9162C25.858 24.0738 26.0774 24.2896 26.2384 24.5638C26.3993 24.8379 26.4798 25.15 26.4798 25.5C26.4798 25.85 26.3993 26.1621 26.2384 26.4362C26.0774 26.7104 25.858 26.9262 25.5801 27.0837ZM24.6283 26.445C24.3736 26.445 24.1629 26.3552 23.9961 26.1755C23.8294 25.9958 23.746 25.7707 23.746 25.5C23.746 25.2293 23.8294 25.0042 23.9961 24.8245C24.1629 24.6448 24.3736 24.555 24.6283 24.555C24.8831 24.555 25.0938 24.6448 25.2605 24.8245C25.4273 25.0042 25.5106 25.2293 25.5106 25.5C25.5106 25.7707 25.4273 25.9958 25.2605 26.1755C25.0938 26.3552 24.8831 26.445 24.6283 26.445ZM28.8141 26.445C28.5593 26.445 28.3486 26.3552 28.1819 26.1755C28.0151 25.9958 27.9318 25.7707 27.9318 25.5C27.9318 25.2293 28.0151 25.0042 28.1819 24.8245C28.3486 24.6448 28.5593 24.555 28.8141 24.555C29.0688 24.555 29.2795 24.6448 29.4463 24.8245C29.613 25.0042 29.6964 25.2293 29.6964 25.5C29.6964 25.7707 29.613 25.9958 29.4463 26.1755C29.2795 26.3552 29.0688 26.445 28.8141 26.445ZM34.1635 27.0837C33.8856 27.2413 33.5683 27.32 33.2117 27.32C32.8551 27.32 32.5372 27.2413 32.2582 27.0837C31.9791 26.9262 31.7591 26.7104 31.5982 26.4362C31.4372 26.1621 31.3568 25.85 31.3568 25.5C31.3568 25.15 31.4372 24.8379 31.5982 24.5638C31.7591 24.2896 31.9791 24.0738 32.2582 23.9162C32.5372 23.7587 32.8551 23.68 33.2117 23.68C33.5683 23.68 33.8856 23.7587 34.1635 23.9162C34.4414 24.0738 34.6608 24.2896 34.8217 24.5638C34.9827 24.8379 35.0631 25.15 35.0631 25.5C35.0631 25.85 34.9827 26.1621 34.8217 26.4362C34.6608 26.7104 34.4414 26.9262 34.1635 27.0837ZM33.2117 26.445C32.957 26.445 32.7462 26.3552 32.5795 26.1755C32.4128 25.9958 32.3294 25.7707 32.3294 25.5C32.3294 25.2293 32.4128 25.0042 32.5795 24.8245C32.7462 24.6448 32.957 24.555 33.2117 24.555C33.4664 24.555 33.6772 24.6448 33.8439 24.8245C34.0106 25.0042 34.094 25.2293 34.094 25.5C34.094 25.7707 34.0106 25.9958 33.8439 26.1755C33.6772 26.3552 33.4664 26.445 33.2117 26.445ZM36.7235 25.7065V27.25H35.7231V23.75H36.5985L36.6471 24.2505C36.8995 23.8702 37.2469 23.68 37.6892 23.68C37.8397 23.68 37.9949 23.7033 38.1547 23.75L38.0157 24.6215C37.8814 24.5772 37.7494 24.555 37.6197 24.555C37.3511 24.555 37.1346 24.6547 36.9702 24.8542C36.8057 25.0538 36.7235 25.3378 36.7235 25.7065ZM40.1485 27.32C40.5052 27.32 40.8224 27.2413 41.1003 27.0837C41.3782 26.9262 41.5976 26.7104 41.7586 26.4362C41.9195 26.1621 42 25.85 42 25.5C42 25.15 41.9195 24.8379 41.7586 24.5638C41.5976 24.2896 41.3782 24.0738 41.1003 23.9162C40.8224 23.7587 40.5052 23.68 40.1485 23.68C39.7919 23.68 39.4741 23.7587 39.195 23.9162C38.916 24.0738 38.696 24.2896 38.535 24.5638C38.3741 24.8379 38.2936 25.15 38.2936 25.5C38.2936 25.85 38.3741 26.1621 38.535 26.4362C38.696 26.7104 38.916 26.9262 39.195 27.0837C39.4741 27.2413 39.7919 27.32 40.1485 27.32ZM39.5163 26.1755C39.6831 26.3552 39.8938 26.445 40.1485 26.445C40.4033 26.445 40.614 26.3552 40.7808 26.1755C40.9475 25.9958 41.0309 25.7707 41.0309 25.5C41.0309 25.2293 40.9475 25.0042 40.7808 24.8245C40.614 24.6448 40.4033 24.555 40.1485 24.555C39.8938 24.555 39.6831 24.6448 39.5163 24.8245C39.3496 25.0042 39.2662 25.2293 39.2662 25.5C39.2662 25.7707 39.3496 25.9958 39.5163 26.1755Z" fill="#D7E0FF" />
      </g>
    </g>
  </symbol>
  <symbol xmlns="http://www.w3.org/2000/svg" width="50" height="50" viewBox="0 0 50 50" fill="none" id="vector">
    <g id="Group 3 Copy 4">
      <rect id="Rectangle" width="50" height="50" rx="15" fill="#34353F" />
      <g id="VECTOR 2">
        <path id="VECTOR" fill-rule="evenodd" clip-rule="evenodd" d="M21.6518 26C22.2075 26 22.6674 25.9529 23.0315 25.8588C23.3956 25.7647 23.6712 25.6235 23.8584 25.4353C24.0455 25.2471 24.1464 25.0132 24.161 24.7338H23.0205C22.9854 24.8103 22.9211 24.8816 22.8275 24.9478C22.7339 25.014 22.5942 25.0662 22.4085 25.1044C22.2228 25.1426 21.9706 25.1618 21.6518 25.1618C21.2775 25.1618 20.9734 25.1397 20.7394 25.0956C20.5054 25.0515 20.3344 24.9824 20.2261 24.8882C20.1179 24.7941 20.0638 24.6721 20.0638 24.5221C20.0638 24.3574 20.1179 24.225 20.2261 24.125C20.3344 24.025 20.5054 23.9522 20.7394 23.9066C20.9734 23.861 21.2775 23.8382 21.6518 23.8382C21.9706 23.8382 22.2236 23.8588 22.4107 23.9C22.5979 23.9412 22.7383 23.9978 22.8319 24.0699C22.9254 24.1419 22.9898 24.225 23.0249 24.3191H24.1654C24.1508 24.0368 24.0499 23.7971 23.8627 23.6C23.6756 23.4029 23.3992 23.2537 23.0337 23.1522C22.6681 23.0507 22.2075 23 21.6518 23C21.2278 23 20.8476 23.025 20.5113 23.075C20.175 23.125 19.8884 23.2081 19.6515 23.3243C19.4146 23.4404 19.2333 23.5963 19.1075 23.7919C18.9818 23.9875 18.9189 24.2309 18.9189 24.5221C18.9189 24.8132 18.9818 25.0544 19.1075 25.2456C19.2333 25.4368 19.4146 25.5875 19.6515 25.6978C19.8884 25.8081 20.175 25.886 20.5113 25.9316C20.8476 25.9772 21.2278 26 21.6518 26ZM10.9131 23.0882L9.22863 25.9118H7.70205L6 23.0882H7.23706L8.46534 25.3835L9.69362 23.0882H10.9131ZM17.1094 25.0735V25.9118H12.6788V23.0882H17.1006V23.9265H13.7755V24.2794H16.4952V24.7206H13.7755V25.0735H17.1094ZM28.6728 23.9265V25.9118H27.5761V23.9265H25.8433V23.0882H30.4055V23.9265H28.6728ZM34.6058 26C35.2434 26 35.7566 25.9434 36.1456 25.8301C36.5345 25.7169 36.8175 25.5493 36.9944 25.3272C37.1713 25.1051 37.2598 24.8294 37.2598 24.5C37.2598 24.1706 37.1713 23.8949 36.9944 23.6728C36.8175 23.4507 36.5345 23.2831 36.1456 23.1699C35.7566 23.0566 35.2434 23 34.6058 23C33.9683 23 33.455 23.0566 33.0661 23.1699C32.6771 23.2831 32.3942 23.4507 32.2173 23.6728C32.0403 23.8949 31.9519 24.1706 31.9519 24.5C31.9519 24.8294 32.0403 25.1051 32.2173 25.3272C32.3942 25.5493 32.6771 25.7169 33.0661 25.8301C33.455 25.9434 33.9683 26 34.6058 26ZM33.814 25.1066C34.0407 25.1434 34.3046 25.1618 34.6058 25.1618C34.9071 25.1618 35.1673 25.1434 35.3867 25.1066C35.606 25.0699 35.7756 25.0037 35.8955 24.9081C36.0154 24.8125 36.0754 24.6765 36.0754 24.5C36.0754 24.3235 36.0154 24.1875 35.8955 24.0919C35.7756 23.9963 35.606 23.9301 35.3867 23.8934C35.1673 23.8566 34.9071 23.8382 34.6058 23.8382C34.3046 23.8382 34.0407 23.8566 33.814 23.8934C33.5874 23.9301 33.4104 23.9963 33.2832 24.0919C33.156 24.1875 33.0924 24.3235 33.0924 24.5C33.0924 24.6765 33.156 24.8125 33.2832 24.9081C33.4104 25.0037 33.5874 25.0699 33.814 25.1066ZM40.2976 25.9118V25.1176H42.0128C42.2468 25.1176 42.42 25.1265 42.5326 25.1441C42.6452 25.1618 42.7183 25.1934 42.752 25.239C42.7856 25.2846 42.8024 25.3515 42.8024 25.4397V25.9118H43.8991V25.3074C43.8991 25.1779 43.8618 25.0787 43.7872 25.0096C43.7127 24.9404 43.5811 24.8926 43.3924 24.8662C43.3581 24.8614 43.3212 24.8569 43.2816 24.8529L43.243 24.8494L43.3201 24.8353C43.4253 24.8141 43.5213 24.7826 43.6078 24.7407L43.671 24.7074C43.7734 24.6485 43.8538 24.5662 43.9123 24.4603C43.9708 24.3544 44 24.2206 44 24.0588C44 23.8147 43.9379 23.6221 43.8136 23.4809C43.6893 23.3397 43.5211 23.239 43.3091 23.1787C43.0971 23.1184 42.858 23.0882 42.5919 23.0882H39.2009V25.9118H40.2976ZM40.2976 24.3809H42.5919C42.6796 24.3809 42.7534 24.3662 42.8134 24.3368C42.8733 24.3074 42.9033 24.2515 42.9033 24.1691C42.9033 24.0926 42.8733 24.0404 42.8134 24.0125C42.7534 23.9846 42.6796 23.9706 42.5919 23.9706H40.2976V24.3809Z" fill="white" />
      </g>
    </g>
  </symbol>
  <symbol xmlns="http://www.w3.org/2000/svg" width="50" height="50" viewBox="0 0 50 50" fill="none" id="maker">
    <g id="Group 3">
      <rect id="Rectangle" width="50" height="50" rx="15" fill="#21427D" />
      <g id="Combined Shape 3">
        <path id="Combined Shape" fill-rule="evenodd" clip-rule="evenodd" d="M34.0812 24.878C34.1031 24.6073 34.1143 24.3335 34.1143 24.0571C34.1143 23.5131 34.0711 22.9792 33.9879 22.4586C35.237 23.89 35.9953 25.7611 36 27.8099C36.0049 29.9792 35.147 32.0615 33.6154 33.5978C32.0838 35.1341 30.0041 35.9984 27.8348 36C25.777 36.0016 23.8963 35.2424 22.4586 33.9879C22.9792 34.0711 23.5131 34.1143 24.0571 34.1143C24.3332 34.1143 24.6067 34.1032 24.8772 34.0813C26.6141 34.9008 28.6522 34.9765 30.4904 34.2098C33.074 33.1321 34.7529 30.603 34.7428 27.8036C34.7381 26.7571 34.5013 25.7657 34.0812 24.878ZM34.0812 24.878C32.974 22.5381 30.5934 20.9192 27.8348 20.9143C25.0355 20.9118 22.5109 22.5975 21.4402 25.184C20.3695 27.7705 20.9641 30.7474 22.9462 32.7241C23.5181 33.2944 24.1728 33.749 24.8772 34.0813C29.7773 33.6859 33.6854 29.778 34.0812 24.878ZM22.4586 33.9879C17.6639 33.2222 14 29.0675 14 24.0571C14 18.5027 18.5027 14 24.0571 14C29.0675 14 33.2222 17.6639 33.9879 22.4586C32.4867 20.7382 30.2766 19.6528 27.814 19.6572C23.3027 19.6652 19.6514 23.3276 19.6571 27.8389C19.6603 30.2925 20.7445 32.4922 22.4586 33.9879Z" fill="#3EE9E5" />
      </g>
    </g>
  </symbol>
  <symbol xmlns="http://www.w3.org/2000/svg" width="50" height="50" viewBox="0 0 50 50" fill="none" id="coffeeroasters">
    <g id="Group 3 Copy 4">
      <rect id="Rectangle" width="50" height="50" rx="15" fill="#F2DECB" />
      <path id="Combined Shape" fill-rule="evenodd" clip-rule="evenodd" d="M26.4893 16.0027C22.9749 12.4911 17.7655 11.9856 14.8766 14.8777C11.9862 17.7682 12.4917 22.9778 16.0001 26.4908C16.9361 27.4269 18.0145 28.1424 19.153 28.6554C19.5265 26.4848 20.5975 24.3983 22.2234 22.6853C21.685 22.4933 21.133 22.3313 20.557 22.1738C17.1461 21.2378 15.4511 18.3922 15.0551 15.0562C15.3826 15.45 15.6808 15.8631 15.9781 16.275C16.555 17.0742 17.1286 17.8688 17.9065 18.5092C19.1168 19.5058 20.4452 19.8904 21.8986 20.3113C21.9547 20.3275 22.011 20.3439 22.0674 20.3602C22.7559 20.5597 23.3544 20.8553 23.9034 21.2003C25.3464 20.1457 26.9738 19.4437 28.6538 19.1542C28.1423 18.0157 27.4253 16.9387 26.4893 16.0027ZM20.5465 29.4894C20.77 27.3159 21.823 25.1903 23.5104 23.5028C27.0248 19.9912 32.2342 19.4842 35.1232 22.3778C38.0136 25.2683 37.5096 30.4779 33.9967 33.991C32.3092 35.6785 30.1838 36.7315 28.0103 36.9565C27.7208 36.985 27.4343 37 27.1538 37C25.2849 37 23.6154 36.3445 22.3854 35.1145C20.9695 33.7 20.3155 31.7019 20.5465 29.4894ZM25.6869 31.2729C26.8388 30.3939 28.0853 30.0459 29.4413 29.6754C32.8522 28.7394 34.5457 25.8938 34.9432 22.5578C34.6184 22.9494 34.3224 23.3598 34.0273 23.7688C33.4487 24.5709 32.8735 25.3681 32.0917 26.0108C30.8778 27.009 29.5463 27.3943 28.0864 27.8168L27.9308 27.8619C24.5934 28.8309 22.9434 31.6524 22.5624 34.936C22.8912 34.541 23.1924 34.1309 23.492 33.7229C24.1423 32.8374 24.7852 31.962 25.6869 31.2729Z" fill="#0E8784" />
    </g>
  </symbol>
  <symbol xmlns="http://www.w3.org/2000/svg" width="50" height="50" viewBox="0 0 50 50" fill="none" id="scoot">
    <g id="Group 3">
      <g id="Group 16">
        <rect id="Rectangle" width="50" height="50" rx="15" fill="#E99210" />
        <path id="scoot" fill-rule="evenodd" clip-rule="evenodd" d="M44.696 28.28V30.2H41.336C40.9733 30.2 40.6773 30.0827 40.448 29.848C40.2187 29.6133 40.104 29.3147 40.104 28.952V24.184H37.752V22.264H40.104V19H42.12V22.264H44.984V24.184H42.12V27.8C42.12 28.12 42.264 28.28 42.552 28.28H44.696ZM8.648 30.424C9.69333 30.424 10.504 30.1893 11.08 29.72C11.656 29.2507 11.944 28.6213 11.944 27.832V27.736C11.944 27.0213 11.688 26.464 11.176 26.064C10.664 25.664 10.0027 25.4213 9.192 25.336C8.488 25.2613 8.00267 25.168 7.736 25.056C7.46933 24.944 7.336 24.76 7.336 24.504C7.336 24.3227 7.42133 24.1707 7.592 24.048C7.76267 23.9253 8.01867 23.864 8.36 23.864C8.73333 23.864 9.03733 23.9467 9.272 24.112C9.50667 24.2773 9.672 24.504 9.768 24.792L11.592 24.056C11.5067 23.832 11.384 23.6 11.224 23.36C11.064 23.12 10.856 22.9013 10.6 22.704C10.344 22.5067 10.032 22.3467 9.664 22.224C9.296 22.1013 8.86133 22.04 8.36 22.04C7.976 22.04 7.60267 22.0933 7.24 22.2C6.87733 22.3067 6.55733 22.464 6.28 22.672C6.00267 22.88 5.77867 23.1333 5.608 23.432C5.43733 23.7307 5.352 24.0773 5.352 24.472V24.568C5.352 25.3253 5.616 25.8987 6.144 26.288C6.672 26.6773 7.384 26.9093 8.28 26.984C8.61067 27.016 8.88533 27.0587 9.104 27.112C9.32267 27.1653 9.496 27.232 9.624 27.312C9.752 27.392 9.84 27.4773 9.888 27.568C9.936 27.6587 9.96 27.7573 9.96 27.864C9.96 28.0453 9.86667 28.2133 9.68 28.368C9.49333 28.5227 9.14933 28.6 8.648 28.6C8.08267 28.6 7.664 28.472 7.392 28.216C7.12 27.96 6.94133 27.6613 6.856 27.32L5 27.928C5.05333 28.2053 5.15733 28.4907 5.312 28.784C5.46667 29.0773 5.688 29.344 5.976 29.584C6.264 29.824 6.62667 30.024 7.064 30.184C7.50133 30.344 8.02933 30.424 8.648 30.424ZM16.844 30.424C17.9747 30.424 18.8787 30.136 19.556 29.56C20.2333 28.984 20.6627 28.2267 20.844 27.288L18.86 26.792C18.764 27.3147 18.5533 27.7307 18.228 28.04C17.9027 28.3493 17.4307 28.504 16.812 28.504C16.524 28.504 16.252 28.4587 15.996 28.368C15.74 28.2773 15.516 28.1413 15.324 27.96C15.132 27.7787 14.98 27.552 14.868 27.28C14.756 27.008 14.7 26.696 14.7 26.344V26.248C14.7 25.896 14.756 25.5787 14.868 25.296C14.98 25.0133 15.132 24.7733 15.324 24.576C15.516 24.3787 15.74 24.2267 15.996 24.12C16.252 24.0133 16.524 23.96 16.812 23.96C17.4307 23.96 17.9107 24.1307 18.252 24.472C18.5933 24.8133 18.796 25.2187 18.86 25.688L20.844 25.176C20.6627 24.2373 20.228 23.48 19.54 22.904C18.852 22.328 17.9533 22.04 16.844 22.04C16.268 22.04 15.7267 22.136 15.22 22.328C14.7133 22.52 14.2707 22.7973 13.892 23.16C13.5133 23.5227 13.2173 23.96 13.004 24.472C12.7907 24.984 12.684 25.56 12.684 26.2V26.392C12.684 27.032 12.7907 27.6027 13.004 28.104C13.2173 28.6053 13.5107 29.0267 13.884 29.368C14.2573 29.7093 14.6973 29.9707 15.204 30.152C15.7107 30.3333 16.2573 30.424 16.844 30.424ZM26.6 30.152C26.104 30.3333 25.584 30.424 25.04 30.424C24.496 30.424 23.976 30.3333 23.48 30.152C22.984 29.9707 22.544 29.7067 22.16 29.36C21.776 29.0133 21.472 28.5867 21.248 28.08C21.024 27.5733 20.912 26.9893 20.912 26.328V26.136C20.912 25.4853 21.024 24.9067 21.248 24.4C21.472 23.8933 21.776 23.464 22.16 23.112C22.544 22.76 22.984 22.4933 23.48 22.312C23.976 22.1307 24.496 22.04 25.04 22.04C25.584 22.04 26.104 22.1307 26.6 22.312C27.096 22.4933 27.536 22.76 27.92 23.112C28.304 23.464 28.608 23.8933 28.832 24.4C29.056 24.9067 29.168 25.4853 29.168 26.136V26.328C29.168 26.9893 29.056 27.5733 28.832 28.08C28.608 28.5867 28.304 29.0133 27.92 29.36C27.536 29.7067 27.096 29.9707 26.6 30.152ZM25.04 28.504C24.752 28.504 24.48 28.456 24.224 28.36C23.968 28.264 23.744 28.1253 23.552 27.944C23.36 27.7627 23.208 27.5413 23.096 27.28C22.984 27.0187 22.928 26.7227 22.928 26.392V26.072C22.928 25.7413 22.984 25.4453 23.096 25.184C23.208 24.9227 23.36 24.7013 23.552 24.52C23.744 24.3387 23.968 24.2 24.224 24.104C24.48 24.008 24.752 23.96 25.04 23.96C25.328 23.96 25.6 24.008 25.856 24.104C26.112 24.2 26.336 24.3387 26.528 24.52C26.72 24.7013 26.872 24.9227 26.984 25.184C27.096 25.4453 27.152 25.7413 27.152 26.072V26.392C27.152 26.7227 27.096 27.0187 26.984 27.28C26.872 27.5413 26.72 27.7627 26.528 27.944C26.336 28.1253 26.112 28.264 25.856 28.36C25.6 28.456 25.328 28.504 25.04 28.504ZM34.892 30.152C34.396 30.3333 33.876 30.424 33.332 30.424C32.788 30.424 32.268 30.3333 31.772 30.152C31.276 29.9707 30.836 29.7067 30.452 29.36C30.068 29.0133 29.764 28.5867 29.54 28.08C29.316 27.5733 29.204 26.9893 29.204 26.328V26.136C29.204 25.4853 29.316 24.9067 29.54 24.4C29.764 23.8933 30.068 23.464 30.452 23.112C30.836 22.76 31.276 22.4933 31.772 22.312C32.268 22.1307 32.788 22.04 33.332 22.04C33.876 22.04 34.396 22.1307 34.892 22.312C35.388 22.4933 35.828 22.76 36.212 23.112C36.596 23.464 36.9 23.8933 37.124 24.4C37.348 24.9067 37.46 25.4853 37.46 26.136V26.328C37.46 26.9893 37.348 27.5733 37.124 28.08C36.9 28.5867 36.596 29.0133 36.212 29.36C35.828 29.7067 35.388 29.9707 34.892 30.152ZM33.332 28.504C33.044 28.504 32.772 28.456 32.516 28.36C32.26 28.264 32.036 28.1253 31.844 27.944C31.652 27.7627 31.5 27.5413 31.388 27.28C31.276 27.0187 31.22 26.7227 31.22 26.392V26.072C31.22 25.7413 31.276 25.4453 31.388 25.184C31.5 24.9227 31.652 24.7013 31.844 24.52C32.036 24.3387 32.26 24.2 32.516 24.104C32.772 24.008 33.044 23.96 33.332 23.96C33.62 23.96 33.892 24.008 34.148 24.104C34.404 24.2 34.628 24.3387 34.82 24.52C35.012 24.7013 35.164 24.9227 35.276 25.184C35.388 25.4453 35.444 25.7413 35.444 26.072V26.392C35.444 26.7227 35.388 27.0187 35.276 27.28C35.164 27.5413 35.012 27.7627 34.82 27.944C34.628 28.1253 34.404 28.264 34.148 28.36C33.892 28.456 33.62 28.504 33.332 28.504Z" fill="white" />
      </g>
    </g>
  </symbol>
  <symbol xmlns="http://www.w3.org/2000/svg" fill="none" viewBox="0 0 24 24" id="icon-eye">
    <path fill-rule="evenodd" clip-rule="evenodd" d="M6.30147 15.5771C4.77832 14.2684 3.6904 12.7726 3.18002 12C3.6904 11.2274 4.77832 9.73158 6.30147 8.42294C7.87402 7.07185 9.81574 6 12 6C14.1843 6 16.1261 7.07185 17.6986 8.42294C19.2218 9.73158 20.3097 11.2274 20.8201 12C20.3097 12.7726 19.2218 14.2684 17.6986 15.5771C16.1261 16.9282 14.1843 18 12 18C9.81574 18 7.87402 16.9282 6.30147 15.5771ZM12 4C9.14754 4 6.75717 5.39462 4.99812 6.90595C3.23268 8.42276 2.00757 10.1376 1.46387 10.9698C1.05306 11.5985 1.05306 12.4015 1.46387 13.0302C2.00757 13.8624 3.23268 15.5772 4.99812 17.0941C6.75717 18.6054 9.14754 20 12 20C14.8525 20 17.2429 18.6054 19.002 17.0941C20.7674 15.5772 21.9925 13.8624 22.5362 13.0302C22.947 12.4015 22.947 11.5985 22.5362 10.9698C21.9925 10.1376 20.7674 8.42276 19.002 6.90595C17.2429 5.39462 14.8525 4 12 4ZM10 12C10 10.8954 10.8955 10 12 10C13.1046 10 14 10.8954 14 12C14 13.1046 13.1046 14 12 14C10.8955 14 10 13.1046 10 12ZM12 8C9.7909 8 8.00004 9.79086 8.00004 12C8.00004 14.2091 9.7909 16 12 16C14.2092 16 16 14.2091 16 12C16 9.79086 14.2092 8 12 8Z" fill="#6e8098" />
  </symbol>
  <symbol xmlns="http://www.w3.org/2000/svg" fill="none" viewBox="0 0 24 24" id="icon-eye-crossed">
    <path fill-rule="evenodd" clip-rule="evenodd" d="M19.7071 5.70711C20.0976 5.31658 20.0976 4.68342 19.7071 4.29289C19.3166 3.90237 18.6834 3.90237 18.2929 4.29289L14.032 8.55382C13.4365 8.20193 12.7418 8 12 8C9.79086 8 8 9.79086 8 12C8 12.7418 8.20193 13.4365 8.55382 14.032L4.29289 18.2929C3.90237 18.6834 3.90237 19.3166 4.29289 19.7071C4.68342 20.0976 5.31658 20.0976 5.70711 19.7071L9.96803 15.4462C10.5635 15.7981 11.2582 16 12 16C14.2091 16 16 14.2091 16 12C16 11.2582 15.7981 10.5635 15.4462 9.96803L19.7071 5.70711ZM12.518 10.0677C12.3528 10.0236 12.1792 10 12 10C10.8954 10 10 10.8954 10 12C10 12.1792 10.0236 12.3528 10.0677 12.518L12.518 10.0677ZM11.482 13.9323L13.9323 11.482C13.9764 11.6472 14 11.8208 14 12C14 13.1046 13.1046 14 12 14C11.8208 14 11.6472 13.9764 11.482 13.9323ZM15.7651 4.8207C14.6287 4.32049 13.3675 4 12 4C9.14754 4 6.75717 5.39462 4.99812 6.90595C3.23268 8.42276 2.00757 10.1376 1.46387 10.9698C1.05306 11.5985 1.05306 12.4015 1.46387 13.0302C1.92276 13.7326 2.86706 15.0637 4.21194 16.3739L5.62626 14.9596C4.4555 13.8229 3.61144 12.6531 3.18002 12C3.6904 11.2274 4.77832 9.73158 6.30147 8.42294C7.87402 7.07185 9.81574 6 12 6C12.7719 6 13.5135 6.13385 14.2193 6.36658L15.7651 4.8207ZM12 18C11.2282 18 10.4866 17.8661 9.78083 17.6334L8.23496 19.1793C9.37136 19.6795 10.6326 20 12 20C14.8525 20 17.2429 18.6054 19.002 17.0941C20.7674 15.5772 21.9925 13.8624 22.5362 13.0302C22.947 12.4015 22.947 11.5985 22.5362 10.9698C22.0773 10.2674 21.133 8.93627 19.7881 7.62611L18.3738 9.04043C19.5446 10.1771 20.3887 11.3469 20.8201 12C20.3097 12.7726 19.2218 14.2684 17.6986 15.5771C16.1261 16.9282 14.1843 18 12 18Z" fill="#6e8098" />
  </symbol>
  <symbol xmlns="http://www.w3.org/2000/svg" viewBox="0 0 24 24" fill="none" id="icon-user">
    <circle cx="12" cy="9" r="3" stroke-width="1.5" stroke="#fff" />
    <circle cx="12" cy="12" r="10" stroke-width="1.5" stroke="#fff" />
    <path d="M17.9691 20C17.81 17.1085 16.9247 15 11.9999 15C7.07521 15 6.18991 17.1085 6.03076 20" stroke="#fff" stroke-width="1.5" stroke-linecap="round" />
  </symbol>
  <symbol xmlns="http://www.w3.org/2000/svg" viewBox="0 0 24 24" fill="none" id="icon-login">
    <path d="M8 16C8 18.8284 8 20.2426 8.87868 21.1213C9.75736 22 11.1716 22 14 22H15C17.8284 22 19.2426 22 20.1213 21.1213C21 20.2426 21 18.8284 21 16V8C21 5.17157 21 3.75736 20.1213 2.87868C19.2426 2 17.8284 2 15 2H14C11.1716 2 9.75736 2 8.87868 2.87868C8 3.75736 8 5.17157 8 8" stroke="#fff" stroke-width="1.5" stroke-linecap="round" />
    <path opacity="0.5" d="M8 19.5C5.64298 19.5 4.46447 19.5 3.73223 18.7678C3 18.0355 3 16.857 3 14.5V9.5C3 7.14298 3 5.96447 3.73223 5.23223C4.46447 4.5 5.64298 4.5 8 4.5" stroke="#fff" stroke-width="1.5" />
    <path d="M6 12L15 12M15 12L12.5 14.5M15 12L12.5 9.5" stroke="#fff" stroke-width="1.5" stroke-linecap="round" stroke-linejoin="round" />
  </symbol>
  <symbol xmlns="http://www.w3.org/2000/svg" fill="none" id="icon-dot">
    <circle cx="2" cy="2" r="2" fill="#6E8098" />
  </symbol>
  <symbol xmlns="http://www.w3.org/2000/svg" width="50" height="50" viewBox="0 0 50 50" fill="none" id="crowdfund">
    <g id="Group 3 Copy 4">
      <rect id="Rectangle" width="50" height="50" rx="15" fill="#37C790" />
      <g id="crowdfund 3">
        <g id="crowdfund 2">
          <path id="crowdfund" fill-rule="evenodd" clip-rule="evenodd" d="M29.7224 24.9539V27.8847H28.4963V24.9539H27.9486V23.7684H28.4963C28.4963 22.6158 29.1257 21.9243 30.4826 22.0066V23.1921C30.0249 23.151 29.7224 23.2909 29.7224 23.7684H30.4826V24.9539H29.7224ZM26.3283 27.4978C26.0586 27.8106 25.658 28 25.1104 28C24.0395 28 23.1567 27.0532 23.1567 25.8266C23.1567 24.5999 24.0395 23.6532 25.1104 23.6532C25.658 23.6532 26.0586 23.8425 26.3283 24.1553V22.1219H27.5545V27.8847H26.3283V27.4978ZM10.0136 26.938C9.66209 27.5801 8.96727 28 8.16619 28C6.9237 28 6 27.0532 6 25.8266C6 24.5999 6.9237 23.6532 8.16619 23.6532C8.9591 23.6532 9.66209 24.073 10.0136 24.7069L8.94275 25.3326C8.80379 25.0445 8.50951 24.8716 8.14984 24.8716C7.61851 24.8716 7.22615 25.2585 7.22615 25.8266C7.22615 26.3946 7.61851 26.7816 8.14984 26.7816C8.50951 26.7816 8.81196 26.6087 8.94275 26.3205L10.0136 26.938ZM11.5521 26.0242V27.8847H10.326V23.7684H11.5521V24.5011C11.7156 23.9495 12.2633 23.6861 12.7782 23.6861V25.0856C12.2714 25.0033 11.5521 25.2091 11.5521 26.0242ZM14.9707 28C16.1723 28 17.1369 27.0532 17.1369 25.8266C17.1369 24.5999 16.1723 23.6532 14.9707 23.6532C13.7691 23.6532 12.8045 24.5999 12.8045 25.8266C12.8045 27.0532 13.7691 28 14.9707 28ZM14.0307 25.8266C14.0307 26.4111 14.4394 26.798 14.9707 26.798C15.502 26.798 15.9108 26.4111 15.9108 25.8266C15.9108 25.2421 15.502 24.8551 14.9707 24.8551C14.4394 24.8551 14.0307 25.2421 14.0307 25.8266ZM19.4929 27.8847L20.1468 25.6866L20.8007 27.8847H21.9451L23.253 23.7684H21.9451L21.3566 25.9748L20.719 23.7684H19.5746L18.937 25.9748L18.3485 23.7684H17.0406L18.3485 27.8847H19.4929ZM25.3556 26.831C24.7916 26.831 24.3828 26.444 24.3828 25.8266C24.3828 25.2091 24.7916 24.8222 25.3556 24.8222C25.9196 24.8222 26.3283 25.2091 26.3283 25.8266C26.3283 26.444 25.9196 26.831 25.3556 26.831ZM32.1846 28C32.7241 28 33.1328 27.8024 33.3536 27.4978V27.8847H34.5797V23.7684H33.3536V26.0159C33.3536 26.6004 33.0429 26.8639 32.5933 26.8639C32.201 26.8639 31.8822 26.6251 31.8822 26.1147V23.7684H30.656V26.2958C30.656 27.4072 31.359 28 32.1846 28ZM36.4861 25.6372V27.8847H35.2599V23.7684H36.4861V24.1553C36.7068 23.8507 37.1155 23.6532 37.655 23.6532C38.4806 23.6532 39.1836 24.2459 39.1836 25.3573V27.8847H37.9574V25.5384C37.9574 25.028 37.6386 24.7893 37.2463 24.7893C36.7967 24.7893 36.4861 25.0527 36.4861 25.6372ZM41.5559 28C42.1036 28 42.5041 27.8106 42.7739 27.4978V27.8847H44V22.1219H42.7739V24.1553C42.5041 23.8425 42.1036 23.6532 41.5559 23.6532C40.4851 23.6532 39.6022 24.5999 39.6022 25.8266C39.6022 27.0532 40.4851 28 41.5559 28ZM40.8284 25.8266C40.8284 26.444 41.2371 26.831 41.8011 26.831C42.3651 26.831 42.7739 26.444 42.7739 25.8266C42.7739 25.2091 42.3651 24.8222 41.8011 24.8222C41.2371 24.8222 40.8284 25.2091 40.8284 25.8266Z" fill="white" />
        </g>
      </g>
    </g>
  </symbol>
  <symbol xmlns="http://www.w3.org/2000/svg" xmlns:xlink="http://www.w3.org/1999/xlink" 
	 viewBox="0 0 486.4 486.4" xml:space="preserve" id="icon-settings">
    <g>
    	<g>
    		<path d="M454.8,195.05h-20.7c-4.7-18.6-12-36.3-21.9-52.7l14.7-14.7c6-6,9.3-13.9,9.3-22.4s-3.3-16.4-9.3-22.4l-23.4-23.4
    			c-6-6-13.9-9.3-22.4-9.3s-16.4,3.3-22.4,9.3l-14.6,14.8c-16.5-9.9-34.1-17.2-52.7-21.9v-20.7c0-17.4-14.2-31.6-31.6-31.6h-33
    			c-17.4,0-31.6,14.2-31.6,31.6v20.7c-18.6,4.7-36.3,12-52.7,21.9l-14.7-14.7c-6-6-13.9-9.3-22.4-9.3S89,53.55,83,59.55l-23.5,23.4
    			c-6,6-9.3,13.9-9.3,22.4s3.3,16.4,9.3,22.4l14.7,14.6c-9.9,16.5-17.2,34.1-21.9,52.7H31.6c-17.4,0-31.6,14.2-31.6,31.6v33
    			c0,17.4,14.2,31.6,31.6,31.6h20.7c4.7,18.6,12,36.3,21.9,52.7l-14.7,14.7c-6,6-9.3,13.9-9.3,22.4s3.3,16.4,9.3,22.4l23.4,23.4
    			c6,6,13.9,9.3,22.4,9.3s16.4-3.3,22.4-9.3l14.7-14.7c16.5,9.9,34.1,17.2,52.7,21.9v20.7c0,17.4,14.2,31.6,31.6,31.6h33
    			c17.4,0,31.6-14.2,31.6-31.6v-20.7c18.6-4.7,36.3-12,52.7-21.9l14.7,14.7c6,6,13.9,9.3,22.4,9.3s16.4-3.3,22.4-9.3l23.4-23.4
    			c6-6,9.3-13.9,9.3-22.4s-3.3-16.4-9.3-22.4l-14.7-14.5c9.9-16.5,17.2-34.1,21.9-52.7h20.7c17.4,0,31.6-14.2,31.6-31.6v-33
    			C486.4,209.25,472.2,195.05,454.8,195.05z M462.4,259.75c0,4.2-3.4,7.6-7.6,7.6h-30.3c-5.7,0-10.7,4-11.8,9.7
    			c-4.4,22.3-13.1,43.2-25.7,62.1c-3.2,4.8-2.6,11.1,1.5,15.2l21.5,21.5c1.4,1.4,2.2,3.4,2.2,5.4s-0.8,4-2.2,5.4l-23.4,23.4
    			c-1.4,1.4-3.4,2.2-5.4,2.2s-4-0.8-5.4-2.2l-21.5-21.5c-4-4-10.4-4.7-15.2-1.5c-18.9,12.7-39.8,21.3-62.1,25.7
    			c-5.6,1.1-9.7,6-9.7,11.8v30.3c0,4.2-3.4,7.6-7.6,7.6h-33c-4.2,0-7.6-3.4-7.6-7.6v-30.3c0-5.7-4-10.7-9.7-11.8
    			c-22.3-4.4-43.2-13.1-62.1-25.7c-2-1.4-4.4-2-6.7-2c-3.1,0-6.2,1.2-8.5,3.5l-21.5,21.5c-1.4,1.4-3.4,2.2-5.4,2.2s-4-0.8-5.4-2.2
    			l-23.4-23.4c-1.4-1.4-2.2-3.4-2.2-5.4s0.8-4,2.2-5.4l21.5-21.5c4-4,4.7-10.4,1.5-15.2c-12.7-18.9-21.3-39.8-25.7-62.1
    			c-1.1-5.6-6-9.7-11.8-9.7H31.6c-4.2,0-7.6-3.4-7.6-7.6v-33c0-4.2,3.4-7.6,7.6-7.6h30.3c5.7,0,10.7-4,11.8-9.7
    			c4.4-22.3,13.1-43.2,25.7-62.1c3.2-4.8,2.6-11.1-1.5-15.2l-21.5-21.5c-1.4-1.4-2.2-3.4-2.2-5.4s0.8-4,2.2-5.4l23.4-23.4
    			c1.4-1.4,3.4-2.2,5.4-2.2s4,0.8,5.4,2.2l21.5,21.5c4,4,10.4,4.7,15.2,1.5c18.9-12.7,39.8-21.3,62.1-25.7c5.6-1.1,9.7-6,9.7-11.8
    			v-30.3c0-4.2,3.4-7.6,7.6-7.6h33c4.2,0,7.6,3.4,7.6,7.6v30.3c0,5.7,4,10.7,9.7,11.8c22.3,4.4,43.2,13.1,62.1,25.7
    			c4.8,3.2,11.1,2.6,15.2-1.5l21.5-21.5c1.4-1.4,3.4-2.2,5.4-2.2s4,0.8,5.4,2.2l23.4,23.4c1.4,1.4,2.2,3.4,2.2,5.4s-0.8,4-2.2,5.4
    			l-21.5,21.5c-4,4-4.7,10.4-1.5,15.2c12.7,18.9,21.3,39.8,25.7,62.1c1.1,5.6,6,9.7,11.8,9.7h30.3c4.2,0,7.6,3.4,7.6,7.6V259.75z"/>
    		<path d="M313.7,181.65c4.4-5,3.9-12.5-1-16.9c-5-4.4-12.5-3.9-16.9,1c-4.4,5-3.9,12.6,1,16.9c2.3,2,5.1,3,7.9,3
    			C308,185.65,311.3,184.25,313.7,181.65z"/>
    		<path d="M280.9,314.75c-5.9,3.1-8.1,10.4-5,16.2c2.1,4.1,6.3,6.4,10.6,6.4c1.9,0,3.8-0.4,5.6-1.4c5.9-3.1,8.1-10.4,5-16.2
    			C294,313.95,286.8,311.65,280.9,314.75z"/>
    		<path d="M268.2,141.35c-6.4-1.6-12.9,2.4-14.5,8.8c-1.6,6.4,2.4,12.9,8.8,14.5c1,0.2,1.9,0.3,2.9,0.3c5.4,0,10.3-3.7,11.6-9.1
    			C278.6,149.45,274.6,142.95,268.2,141.35z"/>
    		<path d="M160,286.15c-5.4,3.8-6.8,11.3-3,16.7c2.3,3.4,6.1,5.2,9.9,5.2c2.4,0,4.7-0.7,6.8-2.1c5.4-3.8,6.8-11.3,3-16.7
    			C172.9,283.75,165.4,282.35,160,286.15z"/>
    		<path d="M326.5,285.95c-5.5-3.8-12.9-2.4-16.7,3.1c-3.8,5.5-2.4,12.9,3.1,16.7c2.1,1.4,4.5,2.1,6.8,2.1c3.8,0,7.6-1.8,9.9-5.2
    			C333.3,297.25,332,289.75,326.5,285.95z"/>
    		<path d="M336.8,242.35c-6.6-0.8-12.5,3.9-13.3,10.5l0,0c-0.8,6.6,3.9,12.6,10.5,13.3c0.5,0.1,1,0.1,1.4,0.1
    			c6,0,11.2-4.5,11.9-10.6C348.1,249.15,343.4,243.15,336.8,242.35z"/>
    		<path d="M330,222.15c1.4,0,2.9-0.3,4.3-0.8c6.2-2.4,9.3-9.3,6.9-15.5s-9.3-9.3-15.5-6.9c-6.2,2.4-9.3,9.3-6.9,15.5
    			C320.6,219.25,325.2,222.15,330,222.15z"/>
    		<path d="M162.9,253.05c-0.8-6.6-6.8-11.3-13.4-10.5c-6.6,0.8-11.3,6.8-10.5,13.4c0.7,6.1,5.9,10.6,11.9,10.6c0.5,0,1,0,1.4-0.1
    			C159,265.65,163.7,259.65,162.9,253.05z"/>
    		<path d="M152.1,221.55c1.4,0.5,2.8,0.8,4.3,0.8c4.8,0,9.4-2.9,11.2-7.8c2.4-6.2-0.8-13.1-7-15.5c-6.2-2.3-13.1,0.8-15.5,7l0,0
    			C142.8,212.35,145.9,219.25,152.1,221.55z"/>
    		<path d="M243.4,324.05C243.3,324.05,243.3,324.05,243.4,324.05c-0.1,0-0.1,0-0.2,0c-6.6,0-12,5.4-12,12s5.4,12,12,12h0.1h0.1
    			c6.6,0,12-5.4,12-12C255.4,329.45,250,324.05,243.4,324.05z"/>
    		<path d="M232.5,150.25c-1.6-6.4-8.1-10.4-14.5-8.8c-6.4,1.6-10.4,8.1-8.8,14.5c1.3,5.5,6.3,9.1,11.6,9.1c0.9,0,1.9-0.1,2.9-0.4
    			C230.2,163.15,234.1,156.65,232.5,150.25z"/>
    		<path d="M205.6,314.85c-5.9-3.1-13.1-0.8-16.2,5c-3.1,5.9-0.8,13.1,5,16.2c1.8,0.9,3.7,1.4,5.6,1.4c4.3,0,8.5-2.3,10.6-6.4
    			C213.8,325.25,211.5,317.95,205.6,314.85z"/>
    		<path d="M190.5,165.85c-4.4-5-12-5.4-16.9-1s-5.4,12-1,16.9c2.4,2.7,5.7,4,9,4c2.8,0,5.7-1,8-3
    			C194.5,178.35,195,170.75,190.5,165.85z"/>
    	</g>
    </g>
  </symbol>
  <symbol  viewBox="0 0 24 24" fill="none" xmlns="http://www.w3.org/2000/svg" >
    <path d="M21.2799 6.40005L11.7399 15.94C10.7899 16.89 7.96987 17.33 7.33987 16.7C6.70987 16.07 7.13987 13.25 8.08987 12.3L17.6399 2.75002C17.8754 2.49308 18.1605 2.28654 18.4781 2.14284C18.7956 1.99914 19.139 1.92124 19.4875 1.9139C19.8359 1.90657 20.1823 1.96991 20.5056 2.10012C20.8289 2.23033 2 1.1225 2.42473 21.3686 2.67153C21.6147 2.91833 21.8083 3.21243 21.9376 3.53609C22.0669 3.85976 22.1294 4.20626 22.1211 4.55471C22.1128 4.90316 22.0339 5.24635 21.8894 5.5635C21.7448 5.88065 21.5375 6.16524 21.2799 6.40005V6.40005Z" stroke="#000000" stroke-width="1.5" stroke-linecap="round" stroke-linejoin="round"/>
    <path d="M11 4H6C4.93913 4 3.92178 4.42142 3.17163 5.17157C2.42149 5.92172 2 6.93913 2 8V18C2 19.0609 2.42149 20.0783 3.17163 20.8284C3.92178 21.5786 4.93913 22 6 22H17C19.21 22 20 20.2 20 18V13" stroke="#000000" stroke-width="1.5" stroke-linecap="round" stroke-linejoin="round"/>
  </symbol>
  <symbol viewBox="0 0 1024 1024" xmlns="http://www.w3.org/2000/svg" id="icon-delete"  >
    <path d="M960 160h-291.2a160 160 0 0 0-313.6 0H64a32 32 0 0 0 0 64h896a32 32 0 0 0 0-64zM512 96a96 96 0 0 1 90.24 64h-180.48A96 96 0 0 1 512 96zM844.16 290.56a32 32 0 0 0-34.88 6.72A32 32 0 0 0 800 320a32 32 0 1 0 64 0 33.6 33.6 0 0 0-9.28-22.72 32 32 0 0 0-10.56-6.72zM832 416a32 32 0 0 0-32 32v96a32 32 0 0 0 64 0v-96a32 32 0 0 0-32-32zM832 640a32 32 0 0 0-32 32v224a32 32 0 0 1-32 32H256a32 32 0 0 1-32-32V320a32 32 0 0 0-64 0v576a96 96 0 0 0 96 96h512a96 96 0 0 0 96-96v-224a32 32 0 0 0-32-32z"  /><path d="M384 768V352a32 32 0 0 0-64 0v416a32 32 0 0 0 64 0zM544 768V352a32 32 0 0 0-64 0v416a32 32 0 0 0 64 0zM704 768V352a32 32 0 0 0-64 0v416a32 32 0 0 0 64 0z" />
  </symbol>
<symbol viewBox="0 0 24 24"  xmlns="http://www.w3.org/2000/svg" id="icon-edit">
  <g id="SVGRepo_bgCarrier" stroke-width="0"></g>
  <g id="SVGRepo_tracerCarrier" stroke-linecap="round" stroke-linejoin="round"></g>
  <g id="SVGRepo_iconCarrier">
    <path fill-rule="evenodd" clip-rule="evenodd" d="M12 21C12 20.4477 12.4477 20 13 20H21C21.5523 20 22 20.4477 22 21C22 21.5523 21.5523 22 21 22H13C12.4477 22 12 21.5523 12 21Z" ></path> 
    <path fill-rule="evenodd" clip-rule="evenodd" d="M20.7736 8.09994C22.3834 6.48381 22.315 4.36152 21.113 3.06183C20.5268 2.4281 19.6926 2.0233 18.7477 2.00098C17.7993 1.97858 16.8167 2.34127 15.91 3.09985C15.8868 3.11925 15.8645 3.13969 15.8432 3.16111L2.87446 16.1816C2.31443 16.7438 2 17.5051 2 18.2987V19.9922C2 21.0937 2.89197 22 4.00383 22H5.68265C6.48037 22 7.24524 21.6823 7.80819 21.1171L20.7736 8.09994ZM17.2071 5.79295C16.8166 5.40243 16.1834 5.40243 15.7929 5.79295C15.4024 6.18348 15.4024 6.81664 15.7929 7.20717L16.7929 8.20717C17.1834 8.59769 17.8166 8.59769 18.2071 8.20717C18.5976 7.81664 18.5976 7.18348 18.2071 6.79295L17.2071 5.79295Z" >
    </path> 
  </g>
</symbol>
<symbol  version="1.1" id="icon-signout" xmlns="http://www.w3.org/2000/svg" xmlns:xlink="http://www.w3.org/1999/xlink" 
	 viewBox="0 0 489.9 489.9" xml:space="preserve">
<g>
	<g>
		<g>
			<path d="M468.3,255.8c0.1-0.1,0.1-0.1,0.2-0.2c0.3-0.4,0.6-0.7,0.8-1.1c0.1-0.1,0.1-0.2,0.2-0.3c0.2-0.4,0.5-0.8,0.7-1.2
				c0-0.1,0.1-0.2,0.1-0.2c0.2-0.4,0.4-0.8,0.6-1.3c0-0.1,0-0.1,0.1-0.2c0.2-0.4,0.3-0.9,0.5-1.4c0-0.1,0-0.2,0.1-0.2
				c0.1-0.5,0.3-0.9,0.3-1.4c0-0.2,0-0.3,0.1-0.5c0.1-0.4,0.1-0.8,0.2-1.2c0.1-0.6,0.1-1.1,0.1-1.7c0-0.6,0-1.1-0.1-1.7
				c0-0.4-0.1-0.8-0.2-1.2c0-0.2,0-0.3-0.1-0.5c-0.1-0.5-0.2-0.9-0.3-1.4c0-0.1,0-0.2-0.1-0.2c-0.1-0.5-0.3-0.9-0.5-1.4
				c0-0.1,0-0.1-0.1-0.2c-0.2-0.4-0.4-0.9-0.6-1.3c0-0.1-0.1-0.2-0.1-0.2c-0.2-0.4-0.4-0.8-0.7-1.2c-0.1-0.1-0.1-0.2-0.2-0.3
				c-0.3-0.4-0.5-0.8-0.8-1.1c-0.1-0.1-0.1-0.1-0.2-0.2c-0.4-0.4-0.7-0.9-1.2-1.3l-98.9-98.8c-6.7-6.7-17.6-6.7-24.3,0
				c-6.7,6.7-6.7,17.6,0,24.3l69.6,69.6H136.8c-9.5,0-17.2,7.7-17.2,17.1c0,9.5,7.7,17.2,17.2,17.2h276.8l-69.1,69.1
				c-6.7,6.7-6.7,17.6,0,24.3c3.3,3.3,7.7,5,12.1,5s8.8-1.7,12.1-5l98.3-98.3C467.5,256.6,467.9,256.2,468.3,255.8z"/>
			<path d="M110.7,34.3h128c9.5,0,17.2-7.7,17.2-17.1c0-9.5-7.7-17.2-17.2-17.2h-128C59.4,0,17.6,41.8,17.6,93.1v303.7
				c0,51.3,41.8,93.1,93.1,93.1h125.9c9.5,0,17.2-7.7,17.2-17.1c0-9.5-7.7-17.2-17.2-17.2H110.7c-32.4,0-58.8-26.4-58.8-58.8V93.1
				C52,60.6,78.3,34.3,110.7,34.3z"/>
		</g>
	</g>
	<g>
	</g>
	<g>
	</g>
	<g>
	</g>
	<g>
	</g>
	<g>
	</g>
	<g>
	</g>
	<g>
	</g>
	<g>
	</g>
	<g>
	</g>
	<g>
	</g>
	<g>
	</g>
	<g>
	</g>
	<g>
	</g>
	<g>
	</g>
	<g>
	</g>
</g>
</symbol>
  <symbol width="24" height="24" viewBox="0 0 1024 1024" class="icon" id='icon-contract' version="1.1" xmlns="http://www.w3.org/2000/svg"><path d="M182.99 146.2h585.14v402.29h73.14V73.06H109.84v877.71H512v-73.14H182.99z"  /><path d="M256.13 219.34h438.86v73.14H256.13zM256.13 365.63h365.71v73.14H256.13zM256.13 511.91h219.43v73.14H256.13zM731.55 585.06c-100.99 0-182.86 81.87-182.86 182.86s81.87 182.86 182.86 182.86c100.99 0 182.86-81.87 182.86-182.86s-81.86-182.86-182.86-182.86z m0 292.57c-60.5 0-109.71-49.22-109.71-109.71 0-60.5 49.22-109.71 109.71-109.71 60.5 0 109.71 49.22 109.71 109.71 0.01 60.49-49.21 109.71-109.71 109.71z"  /><path d="M758.99 692.08h-54.86v87.27l69.39 68.76 38.61-38.96-53.14-52.66z" /></symbol>
  <symbol width="24" height="24" viewBox="0 0 50 50" xmlns="http://www.w3.org/2000/svg" xmlns:xlink="http://www.w3.org/1999/xlink" id="icon-company"><path d="M8 2L8 6L4 6L4 48L15 48L15 39L19 39L19 48L30 48L30 6L26 6L26 2 Z M 10 10L12 10L12 12L10 12 Z M 14 10L16 10L16 12L14 12 Z M 18 10L20 10L20 12L18 12 Z M 22 10L24 10L24 12L22 12 Z M 32 14L32 18L34 18L34 20L32 20L32 22L34 22L34 24L32 24L32 26L34 26L34 28L32 28L32 30L34 30L34 32L32 32L32 34L34 34L34 36L32 36L32 38L34 38L34 40L32 40L32 42L34 42L34 44L32 44L32 48L46 48L46 14 Z M 10 15L12 15L12 19L10 19 Z M 14 15L16 15L16 19L14 19 Z M 18 15L20 15L20 19L18 19 Z M 22 15L24 15L24 19L22 19 Z M 36 18L38 18L38 20L36 20 Z M 40 18L42 18L42 20L40 20 Z M 10 21L12 21L12 25L10 25 Z M 14 21L16 21L16 25L14 25 Z M 18 21L20 21L20 25L18 25 Z M 22 21L24 21L24 25L22 25 Z M 36 22L38 22L38 24L36 24 Z M 40 22L42 22L42 24L40 24 Z M 36 26L38 26L38 28L36 28 Z M 40 26L42 26L42 28L40 28 Z M 10 27L12 27L12 31L10 31 Z M 14 27L16 27L16 31L14 31 Z M 18 27L20 27L20 31L18 31 Z M 22 27L24 27L24 31L22 31 Z M 36 30L38 30L38 32L36 32 Z M 40 30L42 30L42 32L40 32 Z M 10 33L12 33L12 37L10 37 Z M 14 33L16 33L16 37L14 37 Z M 18 33L20 33L20 37L18 37 Z M 22 33L24 33L24 37L22 37 Z M 36 34L38 34L38 36L36 36 Z M 40 34L42 34L42 36L40 36 Z M 36 38L38 38L38 40L36 40 Z M 40 38L42 38L42 40L40 40 Z M 10 39L12 39L12 44L10 44 Z M 22 39L24 39L24 44L22 44 Z M 36 42L38 42L38 44L36 44 Z M 40 42L42 42L42 44L40 44Z"/></symbol>
  <symbol id="arrow-drop-up" width="24" height="24" viewBox="0 0 24 24"  xmlns="http://www.w3.org/2000/svg">
    <path d="M12.1921 9.23047L15.9065 13.6879C16.3408 14.2089 15.9702 15 15.292 15L8.70803 15C8.02976 15 7.65924 14.2089 8.09346 13.6879L11.8079 9.23047C11.9079 9.11053 12.0921 9.11053 12.1921 9.23047Z" />
  </symbol>
  <symbol id="arrow-drop-down" width="24" height="24" viewBox="0 0 24 24" xmlns="http://www.w3.org/2000/svg">
    <path d="M11.8079 14.7695L8.09346 10.3121C7.65924 9.79109 8.02976 9 8.70803 9L15.292 9C15.9702 9 16.3408 9.79108 15.9065 10.3121L12.1921 14.7695C12.0921 14.8895 11.9079 14.8895 11.8079 14.7695Z" />
  </symbol>
  <symbol id="double-left-arrow-light" fill="none" viewBox="0 0 24 24" xmlns="http://www.w3.org/2000/svg">
    <path d="M19 19L12.7071 12.7071C12.3166 12.3166 12.3166 11.6834 12.7071 11.2929L19 5" stroke="#121721" stroke-width="2" stroke-linecap="round" stroke-linejoin="round"/>
    <path d="M11 19L4.70711 12.7071C4.31658 12.3166 4.31658 11.6834 4.70711 11.2929L11 5" stroke="#121721" stroke-width="2" stroke-linecap="round" stroke-linejoin="round"/>
  </symbol>
    <symbol id="double-left-arrow-dark" fill="none" viewBox="0 0 24 24" xmlns="http://www.w3.org/2000/svg">
    <path d="M19 19L12.7071 12.7071C12.3166 12.3166 12.3166 11.6834 12.7071 11.2929L19 5" stroke="#6e8098" stroke-width="2" stroke-linecap="round" stroke-linejoin="round"/>
    <path d="M11 19L4.70711 12.7071C4.31658 12.3166 4.31658 11.6834 4.70711 11.2929L11 5" stroke="#6e8098" stroke-width="2" stroke-linecap="round" stroke-linejoin="round"/>
  </symbol>
  <symbol id="double-right-arrow-light" fill="none" viewBox="0 0 24 24" xmlns="http://www.w3.org/2000/svg">
    <path d="M5.5 5L11.7929 11.2929C12.1834 11.6834 12.1834 12.3166 11.7929 12.7071L5.5 19" stroke="#121721" stroke-width="2" stroke-linecap="round" stroke-linejoin="round"/>
    <path d="M13.5 5L19.7929 11.2929C20.1834 11.6834 20.1834 12.3166 19.7929 12.7071L13.5 19" stroke="#121721" stroke-width="2" stroke-linecap="round" stroke-linejoin="round"/>
  </symbol>
    <symbol id="double-right-arrow-dark" fill="none" viewBox="0 0 24 24" xmlns="http://www.w3.org/2000/svg">
    <path d="M5.5 5L11.7929 11.2929C12.1834 11.6834 12.1834 12.3166 11.7929 12.7071L5.5 19" stroke="#6e8098" stroke-width="2" stroke-linecap="round" stroke-linejoin="round"/>
    <path d="M13.5 5L19.7929 11.2929C20.1834 11.6834 20.1834 12.3166 19.7929 12.7071L13.5 19" stroke="#6e8098" stroke-width="2" stroke-linecap="round" stroke-linejoin="round"/>
  </symbol>
  <symbol id="right-arrow-light" width="20" height="20" viewBox="-4.5 0 20 20" version="1.1" xmlns="http://www.w3.org/2000/svg" xmlns:xlink="http://www.w3.org/1999/xlink">
    <g stroke="none" stroke-width="1" fill="none" fill-rule="evenodd">
        <g transform="translate(-305.000000, -6679.000000)" fill="#121721">
            <g id="icons" transform="translate(56.000000, 160.000000)">
                <path d="M249.365851,6538.70769 L249.365851,6538.70769 C249.770764,6539.09744 250.426289,6539.09744 250.830166,6538.70769 L259.393407,6530.44413 C260.202198,6529.66364 260.202198,6528.39747 259.393407,6527.61699 L250.768031,6519.29246 C250.367261,6518.90671 249.720021,6518.90172 249.314072,6519.28247 L249.314072,6519.28247 C248.899839,6519.67121 248.894661,6520.31179 249.302681,6520.70653 L257.196934,6528.32352 C257.601847,6528.71426 257.601847,6529.34685 257.196934,6529.73759 L249.365851,6537.29462 C248.960938,6537.68437 248.960938,6538.31795 249.365851,6538.70769" id="arrow_right-[#336]">
                </path>
            </g>
        </g>
    </g>
  </symbol>
    <symbol id="right-arrow-dark" width="20" height="20" viewBox="-4.5 0 20 20" version="1.1" xmlns="http://www.w3.org/2000/svg" xmlns:xlink="http://www.w3.org/1999/xlink">
    <g stroke="none" stroke-width="1" fill="none" fill-rule="evenodd">
        <g transform="translate(-305.000000, -6679.000000)" fill="#6e8098">
            <g id="icons" transform="translate(56.000000, 160.000000)">
                <path d="M249.365851,6538.70769 L249.365851,6538.70769 C249.770764,6539.09744 250.426289,6539.09744 250.830166,6538.70769 L259.393407,6530.44413 C260.202198,6529.66364 260.202198,6528.39747 259.393407,6527.61699 L250.768031,6519.29246 C250.367261,6518.90671 249.720021,6518.90172 249.314072,6519.28247 L249.314072,6519.28247 C248.899839,6519.67121 248.894661,6520.31179 249.302681,6520.70653 L257.196934,6528.32352 C257.601847,6528.71426 257.601847,6529.34685 257.196934,6529.73759 L249.365851,6537.29462 C248.960938,6537.68437 248.960938,6538.31795 249.365851,6538.70769" id="arrow_right-[#336]">
                </path>
            </g>
        </g>
    </g>
  </symbol>
  <symbol id="left-arrow-light" width="20" height="20" viewBox="-4.5 0 20 20" version="1.1" xmlns="http://www.w3.org/2000/svg" xmlns:xlink="http://www.w3.org/1999/xlink">
    <g stroke="none" stroke-width="1" fill="none" fill-rule="evenodd">
        <g transform="translate(-345.000000, -6679.000000)" fill="#121721">
            <g id="icons" transform="translate(56.000000, 160.000000)">
                <path d="M299.633777,6519.29231 L299.633777,6519.29231 C299.228878,6518.90256 298.573377,6518.90256 298.169513,6519.29231 L289.606572,6527.55587 C288.797809,6528.33636 288.797809,6529.60253 289.606572,6530.38301 L298.231646,6538.70754 C298.632403,6539.09329 299.27962,6539.09828 299.685554,6538.71753 L299.685554,6538.71753 C300.100809,6538.32879 300.104951,6537.68821 299.696945,6537.29347 L291.802968,6529.67648 C291.398069,6529.28574 291.398069,6528.65315 291.802968,6528.26241 L299.633777,6520.70538 C300.038676,6520.31563 300.038676,6519.68305 299.633777,6519.29231" id="arrow_left-[#335]">
              </path>
            </g>
        </g>
    </g>
</symbol>
  <symbol id="left-arrow-dark" width="20" height="20" viewBox="-4.5 0 20 20" version="1.1" xmlns="http://www.w3.org/2000/svg" xmlns:xlink="http://www.w3.org/1999/xlink">
    <g stroke="none" stroke-width="1" fill="none" fill-rule="evenodd">
        <g transform="translate(-345.000000, -6679.000000)" fill="#6e8098">
            <g id="icons" transform="translate(56.000000, 160.000000)">
                <path d="M299.633777,6519.29231 L299.633777,6519.29231 C299.228878,6518.90256 298.573377,6518.90256 298.169513,6519.29231 L289.606572,6527.55587 C288.797809,6528.33636 288.797809,6529.60253 289.606572,6530.38301 L298.231646,6538.70754 C298.632403,6539.09329 299.27962,6539.09828 299.685554,6538.71753 L299.685554,6538.71753 C300.100809,6538.32879 300.104951,6537.68821 299.696945,6537.29347 L291.802968,6529.67648 C291.398069,6529.28574 291.398069,6528.65315 291.802968,6528.26241 L299.633777,6520.70538 C300.038676,6520.31563 300.038676,6519.68305 299.633777,6519.29231" id="arrow_left-[#335]">
              </path>
            </g>
        </g>
    </g>
</symbol>
<symbol id="icon-github"  version="1.1" xmlns="http://www.w3.org/2000/svg" xmlns:xlink="http://www.w3.org/1999/xlink">
    <g id="Page-1" stroke="none" stroke-width="1" fill="none" fill-rule="evenodd">
        <g id="Dribbble-Light-Preview" transform="translate(-140.000000, -7559.000000)" fill="#eee">
            <g id="icons" transform="translate(56.000000, 160.000000)">
                <path d="M94,7399 C99.523,7399 104,7403.59 104,7409.253 C104,7413.782 101.138,7417.624 97.167,7418.981 C96.66,7419.082 96.48,7418.762 96.48,7418.489 C96.48,7418.151 96.492,7417.047 96.492,7415.675 C96.492,7414.719 96.172,7414.095 95.813,7413.777 C98.04,7413.523 100.38,7412.656 100.38,7408.718 C100.38,7407.598 99.992,7406.684 99.35,7405.966 C99.454,7405.707 99.797,7404.664 99.252,7403.252 C99.252,7403.252 98.414,7402.977 96.505,7404.303 C95.706,7404.076 94.85,7403.962 94,7403.958 C93.15,7403.962 92.295,7404.076 91.497,7404.303 C89.586,7402.977 88.746,7403.252 88.746,7403.252 C88.203,7404.664 88.546,7405.707 88.649,7405.966 C88.01,7406.684 87.619,7407.598 87.619,7408.718 C87.619,7412.646 89.954,7413.526 92.175,7413.785 C91.889,7414.041 91.63,7414.493 91.54,7415.156 C90.97,7415.418 89.522,7415.871 88.63,7414.304 C88.63,7414.304 88.101,7413.319 87.097,7413.247 C87.097,7413.247 86.122,7413.234 87.029,7413.87 C87.029,7413.87 87.684,7414.185 88.139,7415.37 C88.139,7415.37 88.726,7417.2 91.508,7416.58 C91.513,7417.437 91.522,7418.245 91.522,7418.489 C91.522,7418.76 91.338,7419.077 90.839,7418.982 C86.865,7417.627 84,7413.783 84,7409.253 C84,7403.59 88.478,7399 94,7399" id="github-[#142]">
              </path>
            </g>
        </g>
    </g>
</symbol>
  <symbol fill="#eee" id="icon-linkedin" version="1.1" xmlns="http://www.w3.org/2000/svg" xmlns:xlink="http://www.w3.org/1999/xlink" 
	  xml:space="preserve">
    <path d="M23,0H9C4,0,0,4,0,9v14c0,5,4,9,9,9h14c5,0,9-4,9-9V9C32,4,28,0,23,0z M12,25c0,0.6-0.4,1-1,1H7c-0.6,0-1-0.4-1-1V13
	  c0-0.6,0.4-1,1-1h4c0.6,0,1,0.4,1,1V25z M9,11c-1.7,0-3-1.3-3-3s1.3-3,3-3s3,1.3,3,3S10.7,11,9,11z M26,25c0,0.6-0.4,1-1,1h-3
	  c-0.6,0-1-0.4-1-1v-3.5v-1v-2c0-0.8-0.7-1.5-1.5-1.5S18,17.7,18,18.5v2v1V25c0,0.6-0.4,1-1,1h-3c-0.6,0-1-0.4-1-1V13
	  c0-0.6,0.4-1,1-1h4c0.3,0,0.5,0.1,0.7,0.3c0.6-0.2,1.2-0.3,1.8-0.3c3,0,5.5,2.5,5.5,5.5V25z"/>
  </symbol>
  <symbol fill="#eee" id="icon-frontendmentor" role="img" xmlns="http://www.w3.org/2000/svg"><path d="M12.17 1.272a.732.732 0 0 0-.718.732v13.914a.732.732 0 0 0 .732.732.732.732 0 0 0 .732-.732V2.004a.732.732 0 0 0-.745-.732zM23.246 5.44a.734.734 0 0 0-.277.063l-6.282 2.804a.733.733 0 0 0 0 1.336l6.282 2.813a.738.738 0 0 0 .3.065.732.732 0 0 0 .297-1.4L18.78 8.976l4.786-2.137a.734.734 0 0 0 .37-.966.734.734 0 0 0-.69-.433zm-22.5 5.032a.732.732 0 0 0-.722.915c1.736 6.677 7.775 11.341 14.683 11.341a.732.732 0 0 0 0-1.464A13.706 13.706 0 0 1 1.44 11.02a.732.732 0 0 0-.694-.547z"/></symbol>
  <symbol id="icon-archive" version="1.1" xmlns="http://www.w3.org/2000/svg">
    <path d="M13.070 5.202l-5.796-1.553c-0.533-0.143-1.081 0.174-1.224 0.707l-5.953 22.216c-0.143 0.534 0.174 1.082 0.708 1.226l5.795 1.553c0.533 0.143 1.082-0.174 1.225-0.707l5.953-22.217c0.142-0.533-0.174-1.082-0.708-1.225zM7.78 24.943c-0.429 1.601-2.073 2.55-3.674 2.121s-2.55-2.073-2.121-3.674 2.073-2.551 3.674-2.121c1.601 0.429 2.55 2.074 2.121 3.674zM8.929 20.657l-5.795-1.553 3.105-11.591 5.796 1.554-3.106 11.59zM18.938 23c-0.829 0-1.5 0.672-1.5 1.5s0.671 1.5 1.5 1.5c0.828 0 1.5-0.672 1.5-1.5s-0.672-1.5-1.5-1.5zM10.811 9.773l-3.865-1.035-0.258 0.966 3.864 1.035 0.259-0.966zM10.033 12.671l0.26-0.966-3.864-1.035-0.259 0.966 3.863 1.035zM5.255 22.778c-0.8-0.215-1.623 0.261-1.837 1.061-0.215 0.801 0.26 1.623 1.061 1.837 0.8 0.215 1.623-0.26 1.837-1.061s-0.261-1.622-1.061-1.837zM29.938 9h-4v1h4v-1zM29.938 13h-4v1h4v-1zM29.938 11h-4v1h4v-1zM27.938 23c-0.829 0-1.5 0.672-1.5 1.5s0.671 1.5 1.5 1.5c0.828 0 1.5-0.672 1.5-1.5s-0.672-1.5-1.5-1.5zM30.938 4h-6c-0.553 0-1 0.447-1 1v23c0 0.552 0.447 1 1 1h6c0.552 0 1-0.448 1-1v-23c0-0.553-0.449-1-1-1zM27.938 27.5c-1.657 0-3-1.344-3-3 0-1.657 1.343-3 3-3 1.656 0 3 1.343 3 3 0 1.656-1.344 3-3 3zM30.938 20h-6v-12h6v12zM20.938 9h-4v1h4v-1zM20.938 13h-4v1h4v-1zM21.938 4h-6c-0.553 0-1 0.447-1 1v23c0 0.552 0.447 1 1 1h6c0.552 0 1-0.448 1-1v-23c0-0.553-0.449-1-1-1zM18.938 27.438c-1.657 0-3-1.344-3-3 0-1.657 1.343-3 3-3 1.656 0 3 1.343 3 3 0 1.656-1.344 3-3 3zM21.938 20h-6v-12h6v12zM20.938 11h-4v1h4v-1zM5.652 13.567l3.863 1.035 0.26-0.966-3.864-1.035-0.259 0.966z"></path>
  </symbol>
</svg>